<svg width="72" height="56" viewBox="0 0 72 56" fill="none" xmlns="http://www.w3.org/2000/svg">
<path fill-rule="evenodd" clip-rule="evenodd" d="M48.9415 0.0341797C49.8191 0.104878 50.1234 0.382708 50.6124 1.10059C54.0234 6.11263 57.3995 11.1506 60.8156 16.1602C61.8042 17.6106 62.8528 19.1013 63.7492 20.6094C64.4013 21.7346 64.9376 22.9238 65.3488 24.1582C66.5886 27.792 67.6797 31.4915 68.8488 35.1494C69.6887 37.7747 70.8324 40.5633 71.2365 43.2891C71.6087 45.8036 71.5856 49.3032 70.4288 51.626C69.4515 53.5876 67.696 55.0181 65.6154 55.6836C64.919 55.9072 64.035 56.0427 63.3058 55.9873C60.9082 55.8027 37.5588 51.6836 37.0031 51.2959C36.6975 51.0795 36.4311 50.544 36.4054 50.1738C36.3623 49.537 36.7664 48.9031 37.1827 48.458C37.594 48.0161 38.1334 47.6252 38.7189 47.4561C39.9905 47.088 41.7229 47.2423 43.0519 47.2197L49.5802 47.1143C51.4386 47.0866 55.6837 47.6835 56.1759 45.0869C56.4487 43.6481 56.3648 41.586 56.3771 40.0918C56.3771 37.3372 56.4243 34.5826 56.5187 31.8301C57.2376 31.8137 60.0807 31.8445 60.4376 31.5215C60.3146 30.8713 58.2554 29.0013 57.6945 28.4414L52.9972 23.7822L40.7872 11.6309C39.486 10.3345 38.0472 8.9887 36.8136 7.63672C36.5921 7.37731 36.4698 7.13409 36.3898 6.80469C36.0062 5.21312 37.0775 3.53177 38.6281 3.09473C39.0106 3.00222 39.5587 3.19092 39.8654 3.39551C40.6057 3.88843 41.3133 4.44831 42.0177 4.98828C45.1558 7.39342 48.3463 9.72989 51.548 12.0498C52.8945 13.0254 54.1564 14.1435 55.546 15.0547L55.7072 15.1602C55.1861 14.5783 54.2286 13.6261 53.6339 13.1504C51.029 11.0674 43.1452 2.41102 48.9415 0.0341797ZM21.9904 0C23.6272 0.0447129 24.2739 1.10616 24.5304 2.6543C24.7377 3.92146 24.0171 5.02426 23.5372 6.06152C22.2167 8.91617 20.1958 10.8264 17.9367 12.9404C17.2106 13.6198 16.1174 14.5464 15.5148 15.3525C19.2087 12.5598 22.9252 9.79721 26.6652 7.06641C28.1094 6.00487 29.5056 4.87778 30.9533 3.82617C31.9383 3.11068 32.6823 2.73911 33.7843 3.47559C34.9512 4.23859 35.5318 6.39956 34.5929 7.5459C33.2854 9.14295 31.5299 10.6521 30.0529 12.127L17.2257 24.8936L13.6173 28.4688C12.7245 29.3558 11.5378 30.4581 10.8449 31.4795L10.7589 31.6074C11.8831 31.7427 13.7344 31.7258 14.9269 31.7422C15.1198 34.5387 15.0118 38.0413 15.0685 40.8789C15.1869 46.8187 14.9712 47.0005 20.9425 47.0312C24.5661 47.1779 28.2027 47.1102 31.8224 47.2559C33.6744 47.3297 34.5507 48.4804 35.0665 50.0986C34.7937 50.6904 34.7399 50.7889 34.3195 51.2832C33.1982 51.6144 31.6689 51.8354 30.4816 52.0518L24.6124 53.1367C21.1053 53.7992 17.5923 54.4331 14.0743 55.0361C11.9454 55.3961 8.34193 56.2059 6.29896 55.7588C4.26658 55.326 2.4953 54.0907 1.38587 52.334C-0.141313 49.8666 -0.313089 44.7629 0.41712 42.1211C1.37628 38.6518 2.64111 34.8081 3.76282 31.3604C4.78692 28.214 5.89127 24.0413 7.32825 21.1689C7.97583 19.8746 10.0061 16.9986 10.8673 15.7275L16.9376 6.77344C17.9713 5.24656 20.6628 0.80674 21.9904 0Z" fill="#0085EA"/>
<path d="M36.3401 16.4502C37.9942 16.4503 39.3352 17.7913 39.3352 19.4453C39.3352 20.84 38.3807 22.0085 37.0901 22.3418L36.6985 25.292H42.6008L43.1663 28.2393H36.3069L36.0579 30.1084C36.064 30.112 36.0702 30.1155 36.0764 30.1191H44.425L47.0325 43.2979C47.0325 43.3491 46.8262 43.4267 46.4143 43.5293C46.0024 43.6147 45.3664 43.6572 44.5071 43.6572C42.8955 43.6572 42.0364 43.3922 41.929 42.8623L40.7454 33.8115H39.2991C39.6758 34.7191 39.885 35.714 39.885 36.7578C39.8849 41.0059 36.441 44.4492 32.1926 44.4492C27.9442 44.4492 24.5003 41.0059 24.5002 36.7578C24.5002 32.5266 27.9168 29.0937 32.1418 29.0664L33.7297 20.9121C33.4854 20.4784 33.345 19.9786 33.345 19.4453C33.345 17.7912 34.6859 16.4502 36.3401 16.4502ZM32.1926 32.6855C29.9435 32.6855 28.1204 34.5088 28.1204 36.7578C28.1204 39.0068 29.9435 40.8301 32.1926 40.8301C34.4417 40.8301 36.2648 39.0068 36.2649 36.7578C36.2649 34.5088 34.4418 32.6856 32.1926 32.6855Z" fill="#003AA0"/>
</svg>
