<svg width="104" height="101" viewBox="0 0 104 101" fill="none" xmlns="http://www.w3.org/2000/svg">
<path d="M67.6558 8.2019L73.8306 18.8582L85.6021 21.6013L88.9907 22.3904L88.6782 25.8562L87.562 38.2419L95.561 47.5876L97.7866 50.1882L95.561 52.7898L87.562 62.1345L88.6782 74.5212L88.9907 77.9871L85.6021 78.7761L73.8306 81.5183L67.6558 92.1755L65.8599 95.2732L62.5825 93.8298L51.5269 88.9617L40.4702 93.864L37.189 95.3191L35.3882 92.2136L29.2124 81.5564L17.4419 78.8142L14.0542 78.0251L14.3657 74.5603L15.481 62.1345L7.48291 52.7898L5.26123 50.1931L7.47803 47.5935L15.481 38.2087L14.3657 25.8171L14.0522 22.3425L17.4526 21.5603L29.2153 18.8533L35.3882 8.2019L37.1841 5.10425L40.4614 6.54663L51.522 11.4167L62.5825 6.54663L65.8599 5.10425L67.6558 8.2019Z" fill="#CFEBB6" stroke="#90D8B2" stroke-width="8"/>
</svg>
