<svg width="33" height="31" viewBox="0 0 33 31" fill="none" xmlns="http://www.w3.org/2000/svg">
<path fill-rule="evenodd" clip-rule="evenodd" d="M29.7917 12.0206L30.9864 12.977C31.2242 13.1624 31.5255 13.2465 31.825 13.2112C32.1244 13.1758 32.3979 13.0239 32.5861 12.7883C32.7742 12.5527 32.8619 12.2524 32.8302 11.9525C32.7984 11.6527 32.6497 11.3774 32.4164 11.1865L20.0032 1.25592C18.9872 0.442934 17.7248 0 16.4236 0C15.1224 0 13.86 0.442934 12.844 1.25592L0.430833 11.1865C0.193391 11.3763 0.0410841 11.6527 0.00741869 11.9548C-0.0262467 12.2569 0.0614871 12.5601 0.251319 12.7975C0.441152 13.035 0.717533 13.1873 1.01966 13.2209C1.32179 13.2546 1.62492 13.1669 1.86236 12.977L3.05556 12.0206V27.7415H1.14583C0.841939 27.7415 0.550492 27.8622 0.335607 28.0771C0.120721 28.292 0 28.5834 0 28.8873C0 29.1912 0.120721 29.4827 0.335607 29.6975C0.550492 29.9124 0.841939 30.0331 1.14583 30.0331H31.7014C32.0053 30.0331 32.2967 29.9124 32.5116 29.6975C32.7265 29.4827 32.8472 29.1912 32.8472 28.8873C32.8472 28.5834 32.7265 28.292 32.5116 28.0771C32.2967 27.8622 32.0053 27.7415 31.7014 27.7415H29.7917V12.0206ZM12.2222 9.79009C12.2222 8.67581 12.6649 7.60717 13.4528 6.81926C14.2407 6.03134 15.3093 5.5887 16.4236 5.5887C17.5379 5.5887 18.6065 6.03134 19.3944 6.81926C20.1824 7.60717 20.625 8.67581 20.625 9.79009C20.625 10.9044 20.1824 11.973 19.3944 12.7609C18.6065 13.5488 17.5379 13.9915 16.4236 13.9915C15.3093 13.9915 14.2407 13.5488 13.4528 12.7609C12.6649 11.973 12.2222 10.9044 12.2222 9.79009ZM16.5 15.5193C17.5144 15.5193 18.3899 15.5193 19.0911 15.614C19.8428 15.7148 20.5624 15.9424 21.146 16.5261C21.7296 17.1097 21.9572 17.8293 22.0581 18.5809C22.1467 19.2379 22.1528 20.0476 22.1528 20.9841V27.7415H19.8611V21.2484C19.8611 20.1362 19.8581 19.4151 19.7878 18.8865C19.7206 18.3899 19.6136 18.2341 19.525 18.147C19.4364 18.0599 19.2821 17.9515 18.7856 17.8843C18.2554 17.814 17.5358 17.8109 16.4236 17.8109C15.3114 17.8109 14.5903 17.814 14.0617 17.8843C13.5651 17.9515 13.4093 18.0599 13.3222 18.147C13.2351 18.2341 13.1267 18.3899 13.0594 18.8865C12.9892 19.4166 12.9861 20.1362 12.9861 21.2484V27.7415H10.6944V21.172C10.6944 20.1576 10.6944 19.2822 10.7892 18.5809C10.89 17.8293 11.1176 17.1097 11.7013 16.5261C12.2849 15.9424 13.006 15.7148 13.7561 15.614C14.4574 15.5193 15.3328 15.5193 16.3488 15.5193H16.5Z" fill="#0085EA"/>
</svg>
