<svg preserveAspectRatio="none" width="100%" height="100%" overflow="visible" style="display: block;" viewBox="0 0 40 40" fill="none" xmlns="http://www.w3.org/2000/svg">
<g id="Frame 2087330449">
<rect width="40" height="40" rx="20" fill="var(--fill-0, #FCFAFA)"/>
<path id="Vector" d="M12 30C11.45 30 10.9793 29.8043 10.588 29.413C10.1967 29.0217 10.0007 28.5507 10 28V12C10 11.45 10.196 10.9793 10.588 10.588C10.98 10.1967 11.4507 10.0007 12 10H28C28.55 10 29.021 10.196 29.413 10.588C29.805 10.98 30.0007 11.4507 30 12V28C30 28.55 29.8043 29.021 29.413 29.413C29.0217 29.805 28.5507 30.0007 28 30H12ZM16.288 21.713C16.096 21.521 16 21.2833 16 21C16 20.7167 16.096 20.4793 16.288 20.288C16.48 20.0967 16.7173 20.0007 17 20C17.2827 19.9993 17.5203 20.0953 17.713 20.288C17.9057 20.4807 18.0013 20.718 18 21C17.9987 21.282 17.9027 21.5197 17.712 21.713C17.5213 21.9063 17.284 22.002 17 22C16.716 21.998 16.4787 21.902 16.288 21.712M22.288 21.712C22.096 21.5213 22 21.284 22 21C22 20.716 22.096 20.4787 22.288 20.288C22.48 20.0973 22.7173 20.0013 23 20C23.2827 19.9987 23.5203 20.0947 23.713 20.288C23.9057 20.4813 24.0013 20.7187 24 21C23.9987 21.2813 23.9027 21.519 23.712 21.713C23.5213 21.907 23.284 22.0027 23 22C22.716 21.9973 22.4787 21.9013 22.288 21.712ZM14 26.5C14.2833 26.5 14.521 26.404 14.713 26.212C14.905 26.02 15.0007 25.7827 15 25.5V24.5H25V25.5C25 25.7833 25.096 26.021 25.288 26.213C25.48 26.405 25.7173 26.5007 26 26.5C26.2827 26.4993 26.5203 26.4033 26.713 26.212C26.9057 26.0207 27.0013 25.7833 27 25.5V19.425C27 19.3083 26.9917 19.196 26.975 19.088C26.9583 18.98 26.9333 18.8757 26.9 18.775L25.55 14.85C25.4167 14.45 25.175 14.125 24.825 13.875C24.475 13.625 24.0833 13.5 23.65 13.5H16.35C15.9167 13.5 15.525 13.625 15.175 13.875C14.825 14.125 14.5833 14.45 14.45 14.85L13.1 18.775C13.0667 18.875 13.0417 18.9793 13.025 19.088C13.0083 19.1967 13 19.309 13 19.425V25.5C13 25.7833 13.0957 26.021 13.287 26.213C13.4783 26.405 13.716 26.5007 14 26.5ZM15.65 17.5L16.35 15.5H23.65L24.35 17.5H15.65Z" fill="var(--fill-0, #003AA0)"/>
</g>
</svg>
