<svg preserveAspectRatio="none" width="100%" height="100%" overflow="visible" style="display: block;" viewBox="0 0 40 40" fill="none" xmlns="http://www.w3.org/2000/svg">
<g id="Frame 2087330449">
<rect width="40" height="40" rx="20" fill="var(--fill-0, #FCFAFA)"/>
<path id="Vector" d="M27.9996 22.0324C31.3134 22.0324 34 22.7202 34 26.0427C34 26.3085 33.8947 26.5635 33.7072 26.7514C33.5198 26.9394 33.2655 27.045 33.0004 27.045H31.9994V28.0472C31.9856 28.5698 31.7689 29.0664 31.3953 29.4311C31.0218 29.7959 30.5209 30 29.9995 30C29.4781 30 28.9772 29.7959 28.6037 29.4311C28.2301 29.0664 28.0134 28.5698 27.9996 28.0472V27.045H12.0004V28.0472C11.9866 28.5698 11.7699 29.0664 11.3963 29.4311C11.0228 29.7959 10.5219 30 10.0005 30C9.47907 30 8.97825 29.7959 8.6047 29.4311C8.23115 29.0664 8.01439 28.5698 8.0006 28.0472V27.045H6.9996C6.73449 27.045 6.48024 26.9394 6.29278 26.7514C6.10531 26.5635 6 26.3085 6 26.0427C6 25.9894 6.014 25.9389 6.0154 25.8869C6.014 25.8588 6 25.8364 6 25.8097V18.9302C6 17.8789 6.8582 17.0184 7.9068 17.0184H8.093C9.1416 17.0184 9.9998 17.8789 9.9998 18.9302V22.0324H27.9996ZM8.093 15.014H7.9068C7.24887 15.0332 6.60107 15.1816 6 15.4505C6.7952 12.3638 9.801 10 14.4798 10C18.9612 10 21.7696 12.1224 23.0002 15.014H28.3496C29.3176 15.014 30.2459 15.3995 30.9304 16.0858C31.6149 16.7721 31.9994 17.7028 31.9994 18.6734V19.1113C31.9998 19.2316 31.9764 19.3508 31.9307 19.462C31.8849 19.5732 31.8177 19.6742 31.7329 19.7593C31.648 19.8444 31.5473 19.9118 31.4363 19.9576C31.3254 20.0035 31.2066 20.0269 31.0866 20.0265H12.0004V18.9302C11.9993 17.8917 11.5872 16.896 10.8546 16.1618C10.1221 15.4275 9.12884 15.0147 8.093 15.014Z" fill="var(--fill-0, #003AA0)"/>
</g>
</svg>
