<svg preserveAspectRatio="none" width="100%" height="100%" overflow="visible" style="display: block;" viewBox="0 0 24.6177 16.0001" fill="none" xmlns="http://www.w3.org/2000/svg">
<g id="Group">
<path id="Vector" d="M1.23088 0C1.53237 3.97705e-05 1.82335 0.110725 2.04865 0.311063C2.27394 0.511401 2.41788 0.787457 2.45315 1.08687L2.46177 1.23088V8.61619H9.84707V2.46177C9.84711 2.16028 9.9578 1.8693 10.1581 1.644C10.3585 1.41871 10.6345 1.27477 10.9339 1.2395L11.078 1.23088H20.925C21.8669 1.23083 22.7732 1.5907 23.4585 2.23687C24.1438 2.88303 24.5563 3.76664 24.6115 4.7069L24.6177 4.92354V14.7706C24.6173 15.0843 24.4972 15.3861 24.2818 15.6142C24.0665 15.8423 23.7721 15.9796 23.4589 15.998C23.1457 16.0164 22.8374 15.9145 22.5968 15.7131C22.3562 15.5118 22.2016 15.2262 22.1645 14.9146L22.1559 14.7706V11.078H2.46177V14.7706C2.46142 15.0843 2.34129 15.3861 2.12592 15.6142C1.91056 15.8423 1.61621 15.9796 1.30302 15.998C0.989832 16.0164 0.681443 15.9145 0.440863 15.7131C0.200282 15.5118 0.0456702 15.2262 0.00861615 14.9146L0 14.7706V1.23088C0 0.904433 0.129682 0.591353 0.360518 0.360518C0.591353 0.129682 0.904433 0 1.23088 0Z" fill="var(--fill-0, #013BA0)"/>
<path id="Vector_2" d="M6.15442 2.46237C6.63341 2.46252 7.10196 2.60241 7.50263 2.86488C7.9033 3.12736 8.2187 3.50102 8.41017 3.94008C8.60164 4.37914 8.66087 4.86452 8.58059 5.33673C8.50031 5.80895 8.28401 6.24749 7.95821 6.59861C7.6324 6.94972 7.21124 7.19817 6.74634 7.31349C6.28144 7.42881 5.79299 7.406 5.34086 7.24786C4.88873 7.08972 4.49255 6.8031 4.20088 6.42315C3.90922 6.0432 3.73473 5.58641 3.69881 5.10877L3.69265 4.92414L3.69881 4.73951C3.74539 4.12018 4.02434 3.54135 4.47974 3.11904C4.93515 2.69674 5.53335 2.46217 6.15442 2.46237Z" fill="var(--fill-0, #013BA0)"/>
</g>
</svg>
