<svg width="40" height="40" viewBox="0 0 40 40" fill="none" xmlns="http://www.w3.org/2000/svg">
<rect width="40" height="40" rx="20" fill="#FCFAFA"/>
<path d="M29.4737 20.5262V23.6841C29.4737 24.8008 29.0301 25.8718 28.2405 26.6614C27.4509 27.451 26.3799 27.8946 25.2632 27.8946H14.7369C13.6202 27.8946 12.5492 27.451 11.7596 26.6614C10.97 25.8718 10.5264 24.8008 10.5264 23.6841V21.1578C10.5264 20.9903 10.5929 20.8296 10.7114 20.7112C10.8298 20.5928 10.9904 20.5262 11.1579 20.5262H29.4737Z" fill="#013BA0" stroke="#013BA0" stroke-linecap="round" stroke-linejoin="round"/>
<path d="M24.2095 27.8947L25.2621 30M15.7885 27.8947L14.7358 30M29.4727 20.5263V14.2105C29.4727 13.0938 29.0291 12.0229 28.2394 11.2332C27.4498 10.4436 26.3788 10 25.2621 10H19.999" stroke="#013BA0" stroke-linecap="round" stroke-linejoin="round"/>
<path d="M23.5785 15.2632H16.4206C16.0721 15.2632 15.7932 14.9811 15.8311 14.6337C15.9848 13.2368 16.6974 10 19.9995 10C23.3016 10 24.0142 13.2368 24.1679 14.6337C24.2058 14.9811 23.9269 15.2632 23.5785 15.2632Z" fill="#013BA0" stroke="#013BA0" stroke-linecap="round" stroke-linejoin="round"/>
</svg>
