<svg width="40" height="40" viewBox="0 0 40 40" fill="none" xmlns="http://www.w3.org/2000/svg">
<rect width="40" height="40" rx="20" fill="#FCFAFA"/>
<path d="M8.92228 12C9.22376 12 9.51475 12.1107 9.74004 12.3111C9.96533 12.5114 10.1093 12.7875 10.1445 13.0869L10.1532 13.2309V20.6161H17.5384V14.4617C17.5384 14.1603 17.6491 13.8693 17.8495 13.644C18.0498 13.4187 18.3259 13.2748 18.6253 13.2395L18.7693 13.2309H28.6163C29.5582 13.2308 30.4645 13.5907 31.1497 14.2368C31.835 14.883 32.2475 15.7666 32.3027 16.7069L32.3089 16.9235V26.7705C32.3086 27.0842 32.1884 27.386 31.9731 27.6141C31.7577 27.8422 31.4633 27.9795 31.1502 27.9979C30.837 28.0163 30.5286 27.9144 30.288 27.713C30.0474 27.5117 29.8928 27.226 29.8558 26.9145L29.8472 26.7705V23.0779H10.1532V26.7705C10.1528 27.0842 10.0327 27.386 9.81731 27.6141C9.60195 27.8422 9.3076 27.9795 8.99442 27.9979C8.68123 28.0163 8.37284 27.9144 8.13227 27.713C7.89169 27.5117 7.73708 27.226 7.70002 26.9145L7.69141 26.7705V13.2309C7.69141 12.9044 7.82109 12.5913 8.05192 12.3605C8.28275 12.1297 8.59583 12 8.92228 12Z" fill="#013BA0"/>
<path d="M13.8455 14.4622C14.3245 14.4624 14.7931 14.6023 15.1937 14.8647C15.5944 15.1272 15.9098 15.5009 16.1013 15.9399C16.2927 16.379 16.352 16.8643 16.2717 17.3366C16.1914 17.8088 15.9751 18.2473 15.6493 18.5984C15.3235 18.9495 14.9024 19.198 14.4375 19.3133C13.9726 19.4286 13.4841 19.4058 13.032 19.2477C12.5799 19.0895 12.1837 18.8029 11.892 18.423C11.6004 18.043 11.4259 17.5862 11.3899 17.1086L11.3838 16.924L11.3899 16.7393C11.4365 16.12 11.7155 15.5412 12.1709 15.1189C12.6263 14.6966 13.2245 14.462 13.8455 14.4622Z" fill="#013BA0"/>
</svg>
