<svg preserveAspectRatio="none" width="100%" height="100%" overflow="visible" style="display: block;" viewBox="0 0 40 40" fill="none" xmlns="http://www.w3.org/2000/svg">
<g id="Frame 2087330449">
<rect width="40" height="40" rx="20" fill="var(--fill-0, #FCFAFA)"/>
<path id="Vector" d="M10.6667 30C10.3361 30 10.0592 29.8933 9.836 29.68C9.61278 29.4667 9.50078 29.2029 9.5 28.8889C9.49923 28.5748 9.61123 28.3111 9.836 28.0978C10.0608 27.8844 10.3377 27.7778 10.6667 27.7778H11.8333V12.2222C11.8333 11.6111 12.062 11.0881 12.5193 10.6533C12.9767 10.2185 13.5258 10.0007 14.1667 10H25.8333C26.475 10 27.0245 10.2178 27.4818 10.6533C27.9392 11.0889 28.1674 11.6119 28.1667 12.2222V27.7778H29.3333C29.6639 27.7778 29.9412 27.8844 30.1652 28.0978C30.3892 28.3111 30.5008 28.5748 30.5 28.8889C30.4992 29.2029 30.3872 29.467 30.164 29.6811C29.9408 29.8952 29.6639 30.0015 29.3333 30H10.6667ZM25.8333 27.7778V12.2222H20.5833V11C21.4389 11.1481 22.1389 11.5278 22.6833 12.1389C23.2278 12.75 23.5 13.463 23.5 14.2778V26.6111C23.5 27.1481 23.3153 27.6252 22.9458 28.0422C22.5764 28.4592 22.1097 28.7137 21.5458 28.8055V27.7778H25.8333ZM18.8333 21.1111C19.1639 21.1111 19.4412 21.0044 19.6652 20.7911C19.8892 20.5778 20.0008 20.3141 20 20C19.9992 19.6859 19.8872 19.4222 19.664 19.2089C19.4408 18.9955 19.1639 18.8889 18.8333 18.8889C18.5028 18.8889 18.2259 18.9955 18.0027 19.2089C17.7794 19.4222 17.6674 19.6859 17.6667 20C17.6659 20.3141 17.7779 20.5781 18.0027 20.7922C18.2274 21.0063 18.5043 21.1126 18.8333 21.1111Z" fill="var(--fill-0, #013BA0)"/>
</g>
</svg>
