<svg preserveAspectRatio="none" width="100%" height="100%" overflow="visible" style="display: block;" viewBox="0 0 40 40" fill="none" xmlns="http://www.w3.org/2000/svg">
<g id="Frame 2087330449">
<rect width="40" height="40" rx="20" fill="var(--fill-0, #FCFAFA)"/>
<path id="Vector" d="M13.7187 21.5C13.2488 21.5 12.9015 21.08 12.9934 20.63C13.0343 20.45 13.0547 20.24 13.0547 20C13.0547 19 12.0333 17.15 12.0333 16.38C12.0333 16.09 12.0639 15.79 12.2069 15.45C12.262 15.3166 12.3567 15.2025 12.4786 15.1223C12.6006 15.0421 12.7444 14.9995 12.8913 15C13.3509 15 13.7084 15.42 13.6165 15.86C13.5757 16.04 13.5654 16.21 13.5654 16.38C13.5654 17.15 14.5869 19 14.5869 20C14.5869 20.42 14.5052 20.76 14.4132 21.01C14.3111 21.31 14.0353 21.5 13.7187 21.5ZM20.3581 21.5C20.6747 21.5 20.9505 21.31 21.0526 21.01C21.1446 20.76 21.2263 20.42 21.2263 20C21.2263 19 20.2048 17.15 20.2048 16.38C20.2048 16.21 20.2151 16.04 20.2457 15.87C20.2679 15.7655 20.2661 15.6574 20.2406 15.5537C20.2151 15.4499 20.1664 15.3529 20.098 15.2697C20.0297 15.1865 19.9433 15.1192 19.8452 15.0726C19.7471 15.026 19.6397 15.0012 19.5307 15C19.3841 15.0008 19.2409 15.0439 19.1192 15.124C18.9975 15.204 18.9026 15.3174 18.8463 15.45C18.7033 15.79 18.6727 16.08 18.6727 16.38C18.6727 17.15 19.6941 19 19.6941 20C19.6941 20.24 19.6737 20.45 19.6328 20.63C19.5409 21.08 19.8882 21.5 20.3581 21.5ZM17.0384 21.5C17.355 21.5 17.6308 21.31 17.7329 21.01C17.8249 20.76 17.9066 20.42 17.9066 20C17.9066 19 16.8851 17.15 16.8851 16.38C16.8851 16.21 16.8954 16.04 16.926 15.87C16.9482 15.7655 16.9464 15.6574 16.9209 15.5537C16.8954 15.4499 16.8467 15.3529 16.7783 15.2697C16.71 15.1865 16.6236 15.1192 16.5255 15.0726C16.4274 15.026 16.32 15.0012 16.211 15C15.9046 15 15.639 15.18 15.5266 15.45C15.3836 15.79 15.353 16.08 15.353 16.38C15.353 17.15 16.3744 19.01 16.3744 20C16.3744 20.24 16.354 20.45 16.3131 20.63C16.2212 21.08 16.5685 21.5 17.0384 21.5ZM28.3356 14.37C28.4724 14.3881 28.6116 14.3786 28.7446 14.342C28.8775 14.3054 29.0014 14.2425 29.1086 14.1573C29.2158 14.072 29.304 13.9661 29.3678 13.8462C29.4316 13.7263 29.4697 13.5949 29.4796 13.46C29.4898 13.28 29.5 13.12 29.5 13C29.5 11.35 28.121 10 26.4357 10C24.8626 10 23.5654 11.16 23.3918 12.65L22.2784 23H11.5123C10.8995 23 10.4194 23.54 10.5113 24.14C11.0527 27.46 13.9638 30 17.3959 30C20.9505 30 23.8718 27.27 24.2498 23.77L25.4244 12.9C25.4755 12.39 25.9045 12 26.4357 12C26.9975 12 27.4571 12.45 27.4571 13C27.4571 13.07 27.4469 13.18 27.4469 13.31C27.406 13.84 27.7942 14.3 28.3356 14.37Z" fill="var(--fill-0, #013BA0)"/>
</g>
</svg>
