<svg preserveAspectRatio="none" width="100%" height="100%" overflow="visible" style="display: block;" viewBox="0 0 40 40" fill="none" xmlns="http://www.w3.org/2000/svg">
<g id="Frame 2087330449">
<rect width="40" height="40" rx="20" fill="var(--fill-0, #FCFAFA)"/>
<path id="Vector" fill-rule="evenodd" clip-rule="evenodd" d="M20.7551 23.3287C21.5872 22.8495 22.314 22.2086 22.8924 21.4441C22.706 21.1553 22.5733 20.8353 22.5008 20.4996L22.4736 20.3739C22.3955 20.0149 22.2114 19.6874 21.9451 19.4333C21.6788 19.1792 21.3423 19.0102 20.9789 18.9479C18.0068 18.4335 18.0068 14.1841 20.9789 13.6683C21.3299 13.6081 21.6561 13.4483 21.9181 13.208C22.1802 12.9678 22.3671 12.6573 22.4564 12.3138C21.7575 11.5552 20.9022 10.956 19.9492 10.5573C18.9962 10.1586 17.9679 9.96984 16.9348 10.0039C15.9017 10.038 14.8882 10.2941 13.9637 10.7547C13.0392 11.2153 12.2256 11.8695 11.5786 12.6725C10.9317 13.4756 10.4666 14.4084 10.2152 15.4071C9.96391 16.4059 9.93227 17.4469 10.1225 18.459C10.3127 19.471 10.7203 20.4302 11.3174 21.2707C11.9144 22.1112 12.6868 22.8133 13.5816 23.3287V24.999C13.5816 25.378 13.7327 25.7414 14.0017 26.0094C14.2707 26.2774 14.6356 26.4279 15.016 26.4279H19.3193C19.6997 26.4279 20.0646 26.2774 20.3336 26.0094C20.6026 25.7414 20.7537 25.378 20.7537 24.999L20.7551 23.3287ZM13.583 28.9284C13.583 28.6442 13.6964 28.3716 13.8981 28.1706C14.0999 27.9696 14.3735 27.8567 14.6589 27.8567H19.6793C19.9647 27.8567 20.2383 27.9696 20.4401 28.1706C20.6418 28.3716 20.7551 28.6442 20.7551 28.9284C20.7551 29.2126 20.6418 29.4852 20.4401 29.6861C20.2383 29.8871 19.9647 30 19.6793 30H14.6589C14.3735 30 14.0999 29.8871 13.8981 29.6861C13.6964 29.4852 13.583 29.2126 13.583 28.9284ZM24.0256 12.4495C24.2881 11.255 25.9951 11.2479 26.2676 12.4395L26.2805 12.4967L26.3064 12.6081C26.4612 13.2608 26.8047 13.8539 27.2945 14.3141C27.7843 14.7743 28.3987 15.0813 29.0619 15.1972C30.3127 15.4144 30.3127 17.2033 29.0619 17.4205C28.3949 17.5369 27.7772 17.8466 27.2861 18.3109C26.7949 18.7753 26.4521 19.3736 26.3006 20.031L26.2676 20.1767C25.9951 21.3698 24.2867 21.3626 24.0228 20.1667L23.9955 20.0424C23.8509 19.3825 23.5123 18.7804 23.0228 18.3129C22.5333 17.8454 21.9152 17.5338 21.2472 17.4176C19.9978 17.2018 19.9978 15.4158 21.2472 15.1986C21.9128 15.0833 22.5292 14.7738 23.0182 14.3094C23.5072 13.8449 23.8468 13.2464 23.9941 12.5895L24.0156 12.4967L24.0256 12.4495Z" fill="var(--fill-0, #013BA0)"/>
</g>
</svg>
