<svg preserveAspectRatio="none" width="100%" height="100%" overflow="visible" style="display: block;" viewBox="0 0 40 40" fill="none" xmlns="http://www.w3.org/2000/svg">
<g id="Frame 2087330445">
<rect width="40" height="40" rx="20" fill="var(--fill-0, #003AA0)"/>
<path id="Vector" d="M20.7068 10.2928L29.7051 19.2929C30.335 19.9229 29.8891 20.9999 28.9982 20.9999H27.9984V27C27.9984 27.7956 27.6824 28.5587 27.1199 29.1213C26.5574 29.6839 25.7945 30 24.999 30H23.9992V22.9999C23.9992 22.2347 23.7069 21.4984 23.182 20.9416C22.6572 20.3849 21.9394 20.0498 21.1757 20.0049L20.9997 19.9999H19.0001C18.2046 19.9999 17.4417 20.316 16.8792 20.8786C16.3166 21.4412 16.0006 22.2043 16.0006 22.9999V30H15.0008C14.2053 30 13.4424 29.6839 12.8799 29.1213C12.3174 28.5587 12.0014 27.7956 12.0014 27V20.9999H11.0016C10.1117 20.9999 9.66481 19.9229 10.2947 19.2929L19.293 10.2928C19.4805 10.1053 19.7348 10 19.9999 10C20.265 10 20.5193 10.1053 20.7068 10.2928ZM20.9997 21.9999C21.2649 21.9999 21.5192 22.1053 21.7067 22.2928C21.8942 22.4804 21.9995 22.7347 21.9995 22.9999V30H18.0003V22.9999C18.0003 22.755 18.0902 22.5186 18.2529 22.3355C18.4157 22.1525 18.6399 22.0356 18.8831 22.0069L19.0001 21.9999H20.9997Z" fill="var(--fill-0, #FCFAFA)"/>
</g>
</svg>
