<svg width="142" height="56" viewBox="0 0 142 56" fill="none" xmlns="http://www.w3.org/2000/svg">
<path fill-rule="evenodd" clip-rule="evenodd" d="M48.9415 0.0341797C49.8191 0.104878 50.1234 0.382708 50.6124 1.10059C54.0234 6.11263 57.3995 11.1506 60.8156 16.1602C61.8042 17.6106 62.8528 19.1013 63.7492 20.6094C64.4013 21.7346 64.9376 22.9238 65.3488 24.1582C66.5886 27.792 67.6797 31.4915 68.8488 35.1494C69.6887 37.7747 70.8324 40.5633 71.2365 43.2891C71.6087 45.8036 71.5856 49.3032 70.4288 51.626C69.4515 53.5876 67.696 55.0181 65.6154 55.6836C64.919 55.9072 64.035 56.0427 63.3058 55.9873C60.9082 55.8027 37.5588 51.6836 37.0031 51.2959C36.6975 51.0795 36.4311 50.544 36.4054 50.1738C36.3623 49.537 36.7664 48.9031 37.1827 48.458C37.594 48.0161 38.1334 47.6252 38.7189 47.4561C39.9905 47.088 41.7229 47.2423 43.0519 47.2197L49.5802 47.1143C51.4386 47.0866 55.6837 47.6835 56.1759 45.0869C56.4487 43.6481 56.3648 41.586 56.3771 40.0918C56.3771 37.3372 56.4243 34.5826 56.5187 31.8301C57.2376 31.8137 60.0807 31.8445 60.4376 31.5215C60.3146 30.8713 58.2554 29.0013 57.6945 28.4414L52.9972 23.7822L40.7872 11.6309C39.486 10.3345 38.0472 8.9887 36.8136 7.63672C36.5921 7.37731 36.4698 7.13409 36.3898 6.80469C36.0062 5.21312 37.0775 3.53177 38.6281 3.09473C39.0106 3.00222 39.5587 3.19092 39.8654 3.39551C40.6057 3.88843 41.3133 4.44831 42.0177 4.98828C45.1558 7.39342 48.3463 9.72989 51.548 12.0498C52.8945 13.0254 54.1564 14.1435 55.546 15.0547L55.7072 15.1602C55.1861 14.5783 54.2286 13.6261 53.6339 13.1504C51.029 11.0674 43.1452 2.41102 48.9415 0.0341797ZM21.9904 0C23.6272 0.0447129 24.2739 1.10616 24.5304 2.6543C24.7377 3.92146 24.0171 5.02426 23.5372 6.06152C22.2167 8.91617 20.1958 10.8264 17.9367 12.9404C17.2106 13.6198 16.1174 14.5464 15.5148 15.3525C19.2087 12.5598 22.9252 9.79721 26.6652 7.06641C28.1094 6.00487 29.5056 4.87778 30.9533 3.82617C31.9383 3.11068 32.6823 2.73911 33.7843 3.47559C34.9512 4.23859 35.5318 6.39956 34.5929 7.5459C33.2854 9.14295 31.5299 10.6521 30.0529 12.127L17.2257 24.8936L13.6173 28.4688C12.7245 29.3558 11.5378 30.4581 10.8449 31.4795L10.7589 31.6074C11.8831 31.7427 13.7344 31.7258 14.9269 31.7422C15.1198 34.5387 15.0118 38.0413 15.0685 40.8789C15.1869 46.8187 14.9712 47.0005 20.9425 47.0312C24.5661 47.1779 28.2027 47.1102 31.8224 47.2559C33.6744 47.3297 34.5507 48.4804 35.0665 50.0986C34.7937 50.6904 34.7399 50.7889 34.3195 51.2832C33.1982 51.6144 31.6689 51.8354 30.4816 52.0518L24.6124 53.1367C21.1053 53.7992 17.5923 54.4331 14.0743 55.0361C11.9454 55.3961 8.34193 56.2059 6.29896 55.7588C4.26658 55.326 2.4953 54.0907 1.38587 52.334C-0.141313 49.8666 -0.313089 44.7629 0.41712 42.1211C1.37628 38.6518 2.64111 34.8081 3.76282 31.3604C4.78692 28.214 5.89127 24.0413 7.32825 21.1689C7.97583 19.8746 10.0061 16.9986 10.8673 15.7275L16.9376 6.77344C17.9713 5.24656 20.6628 0.80674 21.9904 0Z" fill="#0085EA"/>
<path d="M36.3398 16.4502C37.994 16.4503 39.335 17.7913 39.335 19.4453C39.3349 20.84 38.3805 22.0085 37.0898 22.3418L36.6982 25.292H42.6006L43.166 28.2393H36.3066L36.0576 30.1084C36.0638 30.112 36.07 30.1155 36.0762 30.1191H44.4248L47.0322 43.2979C47.0322 43.3491 46.826 43.4267 46.4141 43.5293C46.0022 43.6147 45.3662 43.6572 44.5068 43.6572C42.8953 43.6572 42.0362 43.3922 41.9287 42.8623L40.7451 33.8115H39.2988C39.6755 34.7191 39.8848 35.714 39.8848 36.7578C39.8847 41.0059 36.4408 44.4492 32.1924 44.4492C27.944 44.4492 24.5001 41.0059 24.5 36.7578C24.5 32.5266 27.9165 29.0937 32.1416 29.0664L33.7295 20.9121C33.4852 20.4784 33.3447 19.9786 33.3447 19.4453C33.3447 17.7912 34.6856 16.4502 36.3398 16.4502ZM32.1924 32.6855C29.9432 32.6855 28.1201 34.5088 28.1201 36.7578C28.1202 39.0068 29.9433 40.8301 32.1924 40.8301C34.4415 40.8301 36.2646 39.0068 36.2646 36.7578C36.2646 34.5088 34.4415 32.6856 32.1924 32.6855Z" fill="#003AA0"/>
<path d="M114.084 25.9757V12.3926H123.257V14.9602H117.142V17.6259H122.571V20.1348H117.142V23.4081H123.708V25.9757H114.084Z" fill="#0085EA"/>
<path d="M102.828 25.9757V12.3926H111.923V14.9602H105.886V17.8023H111.256V20.37H105.886V25.9757H102.828Z" fill="#0085EA"/>
<path d="M97.7968 25.9757C97.6531 25.5053 97.4898 25.0218 97.3068 24.5253C97.1369 24.0287 96.9671 23.5322 96.7972 23.0356H91.505C91.3351 23.5322 91.1587 24.0287 90.9758 24.5253C90.8059 25.0218 90.6491 25.5053 90.5054 25.9757H87.3301C87.8397 24.5122 88.3232 23.1598 88.7805 21.9184C89.2379 20.6771 89.6822 19.5076 90.1134 18.4099C90.5577 17.3123 90.9889 16.2735 91.407 15.2935C91.8382 14.3004 92.2825 13.3334 92.7399 12.3926H95.6604C96.1046 13.3334 96.5424 14.3004 96.9736 15.2935C97.4048 16.2735 97.836 17.3123 98.2672 18.4099C98.7115 19.5076 99.1623 20.6771 99.6197 21.9184C100.077 23.1598 100.561 24.5122 101.07 25.9757H97.7968ZM94.1315 15.4699C94.0662 15.6659 93.9682 15.9337 93.8375 16.2735C93.7068 16.6132 93.5566 17.0052 93.3867 17.4495C93.2168 17.8938 93.0273 18.3838 92.8183 18.9195C92.6223 19.4553 92.4197 20.0172 92.2106 20.6052H96.072C95.8629 20.0172 95.6604 19.4553 95.4643 18.9195C95.2683 18.3838 95.0789 17.8938 94.8959 17.4495C94.7261 17.0052 94.5758 16.6132 94.4451 16.2735C94.3144 15.9337 94.2099 15.6659 94.1315 15.4699Z" fill="#0085EA"/>
<path d="M80.9985 23.6429C81.4297 23.6429 81.7825 23.6102 82.057 23.5449C82.3444 23.4665 82.5731 23.3685 82.743 23.2509C82.9129 23.1202 83.0305 22.97 83.0958 22.8001C83.1611 22.6302 83.1938 22.4407 83.1938 22.2317C83.1938 21.7874 82.9847 21.4215 82.5666 21.134C82.1484 20.8335 81.4297 20.5134 80.4105 20.1736C79.9662 20.0168 79.5219 19.8404 79.0777 19.6444C78.6334 19.4353 78.2348 19.1805 77.882 18.88C77.5292 18.5664 77.2417 18.194 77.0196 17.7628C76.7974 17.3185 76.6864 16.7827 76.6864 16.1555C76.6864 15.5283 76.804 14.9664 77.0392 14.4699C77.2744 13.9603 77.6076 13.529 78.0388 13.1762C78.47 12.8234 78.9927 12.5556 79.6069 12.3726C80.221 12.1766 80.9136 12.0786 81.6845 12.0786C82.5992 12.0786 83.3898 12.1766 84.0562 12.3726C84.7226 12.5686 85.2715 12.7842 85.7027 13.0194L84.8207 15.4303C84.4417 15.2343 84.017 15.0644 83.5466 14.9207C83.0893 14.7639 82.5339 14.6855 81.8806 14.6855C81.1488 14.6855 80.6196 14.79 80.2929 14.9991C79.9793 15.1951 79.8225 15.5022 79.8225 15.9203C79.8225 16.1686 79.8813 16.3777 79.9989 16.5475C80.1165 16.7174 80.2798 16.8742 80.4889 17.0179C80.711 17.1486 80.9593 17.2727 81.2337 17.3903C81.5212 17.4949 81.8348 17.606 82.1746 17.7236C82.8802 17.9849 83.4943 18.2462 84.017 18.5076C84.5397 18.7558 84.9709 19.0499 85.3107 19.3896C85.6635 19.7293 85.9248 20.1279 86.0947 20.5852C86.2646 21.0426 86.3495 21.5979 86.3495 22.2513C86.3495 23.5188 85.9052 24.5053 85.0167 25.2109C84.1281 25.9035 82.7887 26.2498 80.9985 26.2498C80.3974 26.2498 79.8552 26.2106 79.3717 26.1322C78.8882 26.0668 78.457 25.9819 78.078 25.8774C77.7121 25.7728 77.392 25.6617 77.1176 25.5441C76.8563 25.4265 76.6341 25.3155 76.4512 25.2109L77.3136 22.7805C77.7187 23.0026 78.2152 23.2052 78.8033 23.3881C79.4043 23.558 80.1361 23.6429 80.9985 23.6429Z" fill="#0085EA"/>
<path d="M138.836 43.7203C137.96 42.1654 137.013 40.63 135.994 39.1142C134.975 37.5985 133.89 36.1676 132.74 34.8217V43.7203H129.722V30.1372H132.211C132.642 30.5684 133.119 31.0976 133.642 31.7248C134.164 32.3521 134.694 33.025 135.229 33.7437C135.778 34.4493 136.321 35.1876 136.856 35.9586C137.392 36.7164 137.895 37.4482 138.366 38.1538V30.1372H141.404V43.7203H138.836Z" fill="#0085EA"/>
<path d="M117.835 43.7203V30.1372H127.008V32.7049H120.893V35.3705H126.322V37.8794H120.893V41.1527H127.459V43.7203H117.835Z" fill="#0085EA"/>
<path d="M107.727 43.7203C107.191 42.5835 106.662 41.401 106.14 40.1727C105.617 38.9444 105.12 37.7291 104.65 36.527C104.179 35.3248 103.742 34.1749 103.337 33.0773C102.945 31.9797 102.605 30.9996 102.317 30.1372H105.689C105.95 30.9212 106.231 31.7706 106.532 32.6853C106.845 33.5869 107.159 34.4885 107.472 35.3901C107.799 36.2918 108.113 37.1542 108.413 37.9774C108.714 38.8006 108.995 39.5128 109.256 40.1139C109.504 39.5128 109.779 38.8006 110.079 37.9774C110.393 37.1542 110.706 36.2918 111.02 35.3901C111.347 34.4885 111.66 33.5869 111.961 32.6853C112.275 31.7706 112.562 30.9212 112.823 30.1372H116.077C115.776 30.9996 115.43 31.9797 115.038 33.0773C114.646 34.1749 114.215 35.3248 113.745 36.527C113.274 37.7291 112.778 38.9444 112.255 40.1727C111.732 41.401 111.203 42.5835 110.667 43.7203H107.727Z" fill="#0085EA"/>
<path d="M99.9404 43.7203C99.7966 43.2499 99.6333 42.7665 99.4504 42.2699C99.2805 41.7734 99.1106 41.2768 98.9407 40.7803H93.6486C93.4787 41.2768 93.3023 41.7734 93.1194 42.2699C92.9495 42.7665 92.7927 43.2499 92.6489 43.7203H89.4736C89.9832 42.2568 90.4667 40.9044 90.9241 39.663C91.3814 38.4217 91.8257 37.2522 92.2569 36.1546C92.7012 35.0569 93.1324 34.0181 93.5506 33.0381C93.9818 32.045 94.4261 31.078 94.8834 30.1372H97.8039C98.2482 31.078 98.6859 32.045 99.1172 33.0381C99.5484 34.0181 99.9796 35.0569 100.411 36.1546C100.855 37.2522 101.306 38.4217 101.763 39.663C102.221 40.9044 102.704 42.2568 103.214 43.7203H99.9404ZM96.2751 33.2145C96.2097 33.4105 96.1117 33.6784 95.9811 34.0181C95.8504 34.3578 95.7001 34.7499 95.5302 35.1941C95.3604 35.6384 95.1709 36.1284 94.9618 36.6642C94.7658 37.1999 94.5633 37.7618 94.3542 38.3498H98.2155C98.0065 37.7618 97.8039 37.1999 97.6079 36.6642C97.4119 36.1284 97.2224 35.6384 97.0395 35.1941C96.8696 34.7499 96.7193 34.3578 96.5887 34.0181C96.458 33.6784 96.3535 33.4105 96.2751 33.2145Z" fill="#0085EA"/>
<path d="M84.6442 30.1372H87.7019V43.7203H84.6442V37.9578H79.5089V43.7203H76.4512V30.1372H79.5089V35.3313H84.6442V30.1372Z" fill="#0085EA"/>
<path d="M138.74 49.1083C137.938 49.1083 137.323 49.3593 136.896 49.8615C136.476 50.3562 136.266 51.0457 136.266 51.9301C136.266 52.3498 136.315 52.7358 136.412 53.0881C136.517 53.4328 136.667 53.7289 136.862 53.9762C137.064 54.2236 137.312 54.4184 137.604 54.5608C137.904 54.6957 138.252 54.7632 138.65 54.7632C138.897 54.7632 139.111 54.7557 139.29 54.7407C139.47 54.7182 139.613 54.692 139.718 54.662V51.8627H141.134V55.6064C140.939 55.6813 140.61 55.7638 140.145 55.8537C139.68 55.9436 139.144 55.9886 138.537 55.9886C137.975 55.9886 137.462 55.8987 136.997 55.7188C136.532 55.5389 136.135 55.2766 135.805 54.9318C135.483 54.5871 135.232 54.1636 135.052 53.6614C134.872 53.1593 134.782 52.5822 134.782 51.9301C134.782 51.278 134.88 50.7009 135.075 50.1988C135.277 49.6966 135.55 49.2731 135.895 48.9284C136.24 48.5761 136.645 48.31 137.109 48.1302C137.574 47.9503 138.069 47.8604 138.593 47.8604C138.953 47.8604 139.272 47.8866 139.549 47.939C139.834 47.984 140.077 48.0365 140.28 48.0964C140.482 48.1564 140.647 48.2201 140.774 48.2876C140.909 48.355 141.003 48.4037 141.056 48.4337L140.628 49.5917C140.403 49.4568 140.122 49.3444 139.785 49.2544C139.455 49.157 139.107 49.1083 138.74 49.1083Z" fill="#0085EA"/>
<path d="M129.327 55.831C129.073 55.4038 128.788 54.9466 128.473 54.4595C128.158 53.9648 127.832 53.4701 127.495 52.9755C127.158 52.4733 126.813 51.9899 126.461 51.5252C126.116 51.053 125.786 50.6295 125.471 50.2548V55.831H124.077V48.04H125.235C125.535 48.3548 125.857 48.7296 126.202 49.1643C126.547 49.5915 126.892 50.0374 127.236 50.5021C127.589 50.9668 127.926 51.4352 128.248 51.9074C128.578 52.3721 128.87 52.8068 129.125 53.2116V48.04H130.53V55.831H129.327Z" fill="#0085EA"/>
<path d="M118.095 48.04H119.511V55.831H118.095V48.04Z" fill="#0085EA"/>
<path d="M111.215 54.7744C111.725 54.7744 112.096 54.6882 112.328 54.5159C112.56 54.3435 112.677 54.0999 112.677 53.7851C112.677 53.5977 112.635 53.4366 112.553 53.3017C112.478 53.1668 112.366 53.0469 112.216 52.9419C112.073 52.8295 111.897 52.7283 111.687 52.6384C111.477 52.5409 111.238 52.4473 110.968 52.3573C110.698 52.2599 110.436 52.155 110.181 52.0425C109.933 51.9226 109.712 51.7765 109.517 51.6041C109.33 51.4317 109.176 51.2256 109.057 50.9857C108.944 50.7459 108.888 50.4574 108.888 50.1201C108.888 49.4156 109.131 48.8647 109.619 48.4674C110.106 48.0627 110.769 47.8604 111.609 47.8604C112.096 47.8604 112.527 47.9166 112.901 48.029C113.284 48.1339 113.583 48.2501 113.801 48.3775L113.362 49.5242C113.108 49.3818 112.826 49.2731 112.519 49.1982C112.219 49.1232 111.908 49.0858 111.586 49.0858C111.204 49.0858 110.904 49.1645 110.687 49.3219C110.477 49.4793 110.372 49.7004 110.372 49.9852C110.372 50.1576 110.406 50.3075 110.473 50.4349C110.548 50.5548 110.649 50.6635 110.777 50.7609C110.912 50.8583 111.065 50.9483 111.238 51.0307C111.417 51.1132 111.612 51.1919 111.822 51.2668C112.189 51.4017 112.515 51.5404 112.8 51.6828C113.093 51.8177 113.336 51.9826 113.531 52.1774C113.733 52.3648 113.887 52.5897 113.992 52.852C114.097 53.1068 114.149 53.4179 114.149 53.7851C114.149 54.4896 113.898 55.0368 113.396 55.4265C112.901 55.8087 112.174 55.9999 111.215 55.9999C110.893 55.9999 110.597 55.9774 110.327 55.9324C110.065 55.8949 109.828 55.8462 109.619 55.7863C109.416 55.7263 109.24 55.6663 109.09 55.6064C108.94 55.5389 108.82 55.479 108.73 55.4265L109.146 54.2685C109.349 54.381 109.622 54.4934 109.967 54.6058C110.312 54.7182 110.728 54.7744 111.215 54.7744Z" fill="#0085EA"/>
<path d="M101.724 55.9997C101.192 55.9997 100.735 55.9247 100.352 55.7748C99.9701 55.6174 99.6516 55.4001 99.3968 55.1228C99.1494 54.8454 98.9658 54.5194 98.8459 54.1447C98.726 53.7699 98.666 53.3577 98.666 52.908V48.04H100.094V52.7731C100.094 53.1254 100.131 53.4289 100.206 53.6837C100.289 53.9311 100.401 54.1334 100.544 54.2908C100.693 54.4482 100.866 54.5644 101.061 54.6393C101.263 54.7143 101.488 54.7518 101.735 54.7518C101.983 54.7518 102.207 54.7143 102.41 54.6393C102.612 54.5644 102.785 54.4482 102.927 54.2908C103.077 54.1334 103.189 53.9311 103.264 53.6837C103.347 53.4289 103.388 53.1254 103.388 52.7731V48.04H104.816V52.908C104.816 53.3577 104.752 53.7699 104.625 54.1447C104.505 54.5194 104.317 54.8454 104.062 55.1228C103.815 55.4001 103.497 55.6174 103.107 55.7748C102.717 55.9247 102.256 55.9997 101.724 55.9997Z" fill="#0085EA"/>
<path d="M88.3878 51.9301C88.3878 52.3573 88.4403 52.7471 88.5452 53.0993C88.6501 53.4441 88.8 53.7401 88.9949 53.9875C89.1973 54.2273 89.4409 54.4147 89.7257 54.5496C90.0105 54.6845 90.3328 54.752 90.6925 54.752C91.0448 54.752 91.3633 54.6845 91.6481 54.5496C91.9329 54.4147 92.1728 54.2273 92.3677 53.9875C92.57 53.7401 92.7237 53.4441 92.8286 53.0993C92.9335 52.7471 92.986 52.3573 92.986 51.9301C92.986 51.5029 92.9335 51.1169 92.8286 50.7721C92.7237 50.4199 92.57 50.1238 92.3677 49.884C92.1728 49.6367 91.9329 49.4455 91.6481 49.3106C91.3633 49.1757 91.0448 49.1083 90.6925 49.1083C90.3328 49.1083 90.0105 49.1757 89.7257 49.3106C89.4409 49.4455 89.1973 49.6367 88.9949 49.884C88.8 50.1313 88.6501 50.4274 88.5452 50.7721C88.4403 51.1169 88.3878 51.5029 88.3878 51.9301ZM94.47 51.9301C94.47 52.5972 94.3688 53.1855 94.1665 53.6952C93.9716 54.2048 93.7018 54.632 93.357 54.9768C93.0197 55.3141 92.6225 55.5689 92.1653 55.7413C91.7081 55.9137 91.2209 55.9999 90.7038 55.9999C90.1866 55.9999 89.6957 55.9137 89.231 55.7413C88.7738 55.5689 88.3728 55.3141 88.028 54.9768C87.6908 54.632 87.421 54.2048 87.2186 53.6952C87.0162 53.1855 86.915 52.5972 86.915 51.9301C86.915 51.2631 87.0162 50.6785 87.2186 50.1763C87.421 49.6666 87.6945 49.2394 88.0393 48.8947C88.3916 48.5499 88.7963 48.2913 89.2535 48.1189C89.7107 47.9465 90.1941 47.8604 90.7038 47.8604C91.2134 47.8604 91.6969 47.9465 92.154 48.1189C92.6112 48.2913 93.0085 48.5499 93.3458 48.8947C93.6905 49.2394 93.9641 49.6666 94.1665 50.1763C94.3688 50.6785 94.47 51.2631 94.47 51.9301Z" fill="#0085EA"/>
<path d="M81.2517 48.04H82.6683V55.831H81.2517V52.3796H77.8677V55.831H76.4512V48.04H77.8677V51.1542H81.2517V48.04Z" fill="#0085EA"/>
</svg>
