<svg width="38" height="26" viewBox="0 0 38 26" fill="none" xmlns="http://www.w3.org/2000/svg">
<path d="M24.1137 11.1294H37.0979V14.8392H24.1137V11.1294ZM25.9686 18.549H37.0979V22.2588H25.9686V18.549ZM22.2588 3.70979H37.0979V7.41959H22.2588V3.70979ZM3.70979 25.9686H22.2588V24.1137C22.2588 18.9997 18.0982 14.8392 12.9843 14.8392H9.27448C4.16053 14.8392 0 18.9997 0 24.1137V25.9686H3.70979ZM11.1294 12.9843C14.8299 12.9843 17.6215 10.1927 17.6215 6.49214C17.6215 2.79162 14.8299 0 11.1294 0C7.42886 0 4.63724 2.79162 4.63724 6.49214C4.63724 10.1927 7.42886 12.9843 11.1294 12.9843Z" fill="#0085EA"/>
</svg>
