<svg width="205" height="82" viewBox="0 0 205 82" fill="none" xmlns="http://www.w3.org/2000/svg">
<path fill-rule="evenodd" clip-rule="evenodd" d="M71.1389 0.0507812C72.4147 0.153475 72.8577 0.556164 73.5686 1.59961C78.5267 8.88511 83.435 16.2083 88.4006 23.4902C89.8376 25.5985 91.3614 27.766 92.6643 29.958C93.6123 31.5938 94.3917 33.3227 94.9895 35.1172C96.7917 40.3995 98.3779 45.7764 100.077 51.0938C101.298 54.9099 102.961 58.9635 103.548 62.9258C104.089 66.5809 104.056 71.6666 102.374 75.043C100.954 77.8946 98.4018 79.9749 95.3772 80.9424C94.3649 81.2674 93.0796 81.4643 92.0197 81.3838C88.5343 81.1154 54.5829 75.1255 53.7854 74.5635C53.3411 74.2489 52.9535 73.4707 52.9162 72.9326C52.8536 72.0069 53.4409 71.0854 54.0461 70.4385C54.6439 69.796 55.4283 69.2284 56.2795 68.9824C58.1278 68.4473 60.6454 68.6724 62.5773 68.6396L72.0676 68.4854C74.7687 68.4451 80.9406 69.3132 81.6564 65.5391C82.053 63.4476 81.9305 60.4493 81.9484 58.2773C81.9484 54.2734 82.0173 50.2695 82.1545 46.2686C83.2001 46.2447 87.331 46.2888 87.8498 45.8193C87.6701 44.8738 84.6778 42.1566 83.8625 41.3428L77.0354 34.5703L59.2863 16.9072C57.3947 15.0226 55.3033 13.066 53.51 11.1006C53.188 10.7235 53.01 10.3704 52.8937 9.8916C52.3362 7.57803 53.8946 5.13421 56.1486 4.49902C56.7047 4.3648 57.5009 4.63823 57.9465 4.93555C59.0227 5.65208 60.0514 6.46605 61.0754 7.25098C65.637 10.7471 70.2749 14.1434 74.9289 17.5156C76.8861 18.9336 78.7197 20.5594 80.7395 21.8838L80.9748 22.0371C80.2175 21.1914 78.8257 19.8069 77.9611 19.1152C74.1747 16.0875 62.7138 3.50594 71.1389 0.0507812ZM31.966 0C34.3454 0.0649946 35.2856 1.60804 35.6584 3.8584C35.9597 5.7004 34.9125 7.30372 34.215 8.81152C32.2954 12.9612 29.3565 15.7375 26.0725 18.8105C25.0171 19.7981 23.4279 21.1447 22.552 22.3164C27.9215 18.2569 33.3245 14.242 38.7609 10.2725C40.8605 8.7293 42.8899 7.09023 44.9943 5.56152C46.4262 4.52146 47.5076 3.98211 49.1096 5.05273C50.8059 6.16208 51.6498 9.30363 50.2844 10.9697C48.3837 13.2913 45.8319 15.485 43.6848 17.6289L25.0402 36.1865L19.7951 41.3828C18.4973 42.6723 16.7712 44.2741 15.7639 45.7588L15.6389 45.9443C17.273 46.1411 19.9639 46.1178 21.6975 46.1416C21.9778 50.2066 21.8211 55.2972 21.9035 59.4219C22.0757 68.056 21.7623 68.3205 30.4426 68.3652C35.7099 68.5784 40.9963 68.4797 46.258 68.6914C48.9498 68.7988 50.223 70.4711 50.9729 72.8232C50.5764 73.6832 50.4988 73.8268 49.8879 74.5449C48.258 75.0264 46.0347 75.3486 44.3088 75.6631L35.7766 77.2402C30.6784 78.2032 25.5721 79.1245 20.4582 80.001C17.3636 80.5242 12.1261 81.7007 9.15645 81.0508C6.20212 80.4217 3.62654 78.6268 2.01387 76.0732C-0.206078 72.4867 -0.454821 65.0677 0.606642 61.2275C2.00092 56.1845 3.83936 50.5967 5.46992 45.585C6.9585 41.0116 8.56385 34.9476 10.6525 30.7725C11.5936 28.8912 14.5452 24.7089 15.7971 22.8613L24.6213 9.84668C26.124 7.62711 30.0364 1.17198 31.966 0Z" fill="white"/>
<path d="M52.8242 23.9116C55.2286 23.9118 57.1775 25.861 57.1777 28.2651C57.1777 30.2928 55.7915 31.9967 53.915 32.481L53.3457 36.7642H61.9258L62.7471 41.0483H52.7764L52.415 43.7651C52.4241 43.7704 52.4333 43.7755 52.4424 43.7808H64.5771L68.3682 62.938C68.367 63.0125 68.0673 63.1241 67.4697 63.2729C66.871 63.3972 65.9468 63.4595 64.6973 63.4595C62.3548 63.4595 61.1057 63.0742 60.9492 62.3042L59.2295 49.1479H57.126C57.6735 50.4671 57.9775 51.9129 57.9775 53.4302C57.9775 59.6053 52.9714 64.6118 46.7959 64.6118C40.6203 64.6118 35.6143 59.6053 35.6143 53.4302C35.6143 47.2795 40.5808 42.2898 46.7227 42.2505L49.0293 30.4009C48.6734 29.7699 48.4697 29.0412 48.4697 28.2651C48.4699 25.8609 50.4197 23.9116 52.8242 23.9116ZM46.7959 47.5112C43.5265 47.5112 40.876 50.161 40.876 53.4302C40.876 56.6994 43.5265 59.3501 46.7959 59.3501C50.0653 59.3501 52.7158 56.6994 52.7158 53.4302C52.7158 50.161 50.0652 47.5113 46.7959 47.5112Z" fill="#FCFAFA"/>
<path d="M165.159 38.03V18.2852H178.493V22.0176H169.603V25.8925H177.496V29.5394H169.603V34.2975H179.148V38.03H165.159Z" fill="white"/>
<path d="M148.797 38.03V18.2852H162.017V22.0176H153.242V26.1489H161.049V29.8813H153.242V38.03H148.797Z" fill="white"/>
<path d="M141.481 38.03C141.272 37.3462 141.035 36.6434 140.769 35.9216C140.522 35.1998 140.275 34.478 140.028 33.7562H132.335C132.088 34.478 131.832 35.1998 131.566 35.9216C131.319 36.6434 131.091 37.3462 130.882 38.03H126.267C127.007 35.9026 127.71 33.9366 128.375 32.1322C129.04 30.3277 129.686 28.6277 130.312 27.0321C130.958 25.4366 131.585 23.9265 132.193 22.5019C132.82 21.0584 133.465 19.6528 134.13 18.2852H138.376C139.021 19.6528 139.658 21.0584 140.284 22.5019C140.911 23.9265 141.538 25.4366 142.165 27.0321C142.811 28.6277 143.466 30.3277 144.131 32.1322C144.796 33.9366 145.498 35.9026 146.239 38.03H141.481ZM136.153 22.7584C136.058 23.0433 135.916 23.4327 135.726 23.9265C135.536 24.4204 135.317 24.9902 135.071 25.636C134.824 26.2819 134.548 26.9941 134.244 27.7729C133.959 28.5517 133.665 29.3685 133.361 30.2232H138.974C138.67 29.3685 138.376 28.5517 138.091 27.7729C137.806 26.9941 137.53 26.2819 137.264 25.636C137.017 24.9902 136.799 24.4204 136.609 23.9265C136.419 23.4327 136.267 23.0433 136.153 22.7584Z" fill="white"/>
<path d="M117.065 34.6383C117.692 34.6383 118.205 34.5908 118.604 34.4958C119.022 34.3819 119.354 34.2394 119.601 34.0684C119.848 33.8785 120.019 33.6601 120.114 33.4131C120.209 33.1662 120.256 32.8908 120.256 32.5869C120.256 31.9411 119.952 31.4092 119.344 30.9913C118.737 30.5545 117.692 30.0891 116.21 29.5952C115.565 29.3673 114.919 29.1109 114.273 28.826C113.627 28.522 113.048 28.1516 112.535 27.7148C112.022 27.2589 111.604 26.7176 111.281 26.0907C110.958 25.4449 110.797 24.6662 110.797 23.7544C110.797 22.8427 110.968 22.0259 111.31 21.3041C111.652 20.5633 112.136 19.9365 112.763 19.4237C113.39 18.9108 114.149 18.5214 115.042 18.2555C115.935 17.9706 116.942 17.8281 118.062 17.8281C119.392 17.8281 120.541 17.9706 121.51 18.2555C122.479 18.5404 123.276 18.8538 123.903 19.1957L122.621 22.7002C122.07 22.4153 121.453 22.1684 120.769 21.9594C120.104 21.7315 119.297 21.6175 118.347 21.6175C117.284 21.6175 116.514 21.7695 116.039 22.0734C115.584 22.3583 115.356 22.8047 115.356 23.4125C115.356 23.7734 115.441 24.0773 115.612 24.3243C115.783 24.5712 116.02 24.7991 116.324 25.0081C116.647 25.198 117.008 25.3784 117.407 25.5494C117.825 25.7014 118.281 25.8628 118.775 26.0338C119.8 26.4136 120.693 26.7935 121.453 27.1734C122.213 27.5343 122.839 27.9617 123.333 28.4556C123.846 28.9494 124.226 29.5288 124.473 30.1936C124.72 30.8584 124.843 31.6656 124.843 32.6154C124.843 34.4578 124.198 35.8919 122.906 36.9176C121.614 37.9243 119.667 38.4277 117.065 38.4277C116.191 38.4277 115.403 38.3707 114.7 38.2567C113.998 38.1618 113.371 38.0383 112.82 37.8863C112.288 37.7344 111.823 37.5729 111.424 37.402C111.044 37.231 110.721 37.0696 110.455 36.9176L111.709 33.3846C112.298 33.7075 113.019 34.002 113.874 34.2679C114.748 34.5148 115.812 34.6383 117.065 34.6383Z" fill="white"/>
<path d="M201.138 63.8229C199.865 61.5626 198.488 59.3307 197.006 57.1274C195.525 54.924 193.948 52.8441 192.277 50.8877V63.8229H187.889V44.0781H191.508C192.134 44.7049 192.828 45.4742 193.587 46.386C194.347 47.2977 195.117 48.2759 195.895 49.3206C196.693 50.3463 197.481 51.4195 198.26 52.5402C199.039 53.6419 199.77 54.7056 200.454 55.7313V44.0781H204.87V63.8229H201.138Z" fill="white"/>
<path d="M170.61 63.8229V44.0781H183.944V47.8105H175.055V51.6854H182.947V55.3324H175.055V60.0905H184.6V63.8229H170.61Z" fill="white"/>
<path d="M155.919 63.8229C155.141 62.1704 154.371 60.4514 153.612 58.6659C152.852 56.8804 152.13 55.1139 151.446 53.3664C150.762 51.619 150.126 49.9474 149.537 48.3519C148.967 46.7564 148.474 45.3318 148.056 44.0781H152.956C153.336 45.2178 153.744 46.4524 154.181 47.7821C154.637 49.0927 155.093 50.4033 155.549 51.7139C156.024 53.0245 156.48 54.2782 156.917 55.4748C157.353 56.6715 157.762 57.7067 158.142 58.5804C158.503 57.7067 158.901 56.6715 159.338 55.4748C159.794 54.2782 160.25 53.0245 160.706 51.7139C161.181 50.4033 161.637 49.0927 162.074 47.7821C162.529 46.4524 162.947 45.2178 163.327 44.0781H168.057C167.62 45.3318 167.117 46.7564 166.547 48.3519C165.977 49.9474 165.35 51.619 164.666 53.3664C163.982 55.1139 163.261 56.8804 162.501 58.6659C161.741 60.4514 160.972 62.1704 160.193 63.8229H155.919Z" fill="white"/>
<path d="M144.599 63.8229C144.39 63.1391 144.153 62.4363 143.887 61.7145C143.64 60.9928 143.393 60.271 143.146 59.5492H135.453C135.207 60.271 134.95 60.9928 134.684 61.7145C134.437 62.4363 134.209 63.1391 134 63.8229H129.385C130.126 61.6955 130.828 59.7296 131.493 57.9251C132.158 56.1207 132.804 54.4206 133.431 52.8251C134.076 51.2296 134.703 49.7195 135.311 48.2949C135.938 46.8513 136.584 45.4457 137.248 44.0781H141.494C142.14 45.4457 142.776 46.8513 143.403 48.2949C144.029 49.7195 144.656 51.2296 145.283 52.8251C145.929 54.4206 146.584 56.1207 147.249 57.9251C147.914 59.7296 148.617 61.6955 149.357 63.8229H144.599ZM139.271 48.5513C139.176 48.8363 139.034 49.2256 138.844 49.7195C138.654 50.2134 138.436 50.7832 138.189 51.429C137.942 52.0748 137.666 52.7871 137.362 53.5659C137.078 54.3447 136.783 55.1614 136.479 56.0162H142.092C141.788 55.1614 141.494 54.3447 141.209 53.5659C140.924 52.7871 140.648 52.0748 140.383 51.429C140.136 50.7832 139.917 50.2134 139.727 49.7195C139.537 49.2256 139.385 48.8363 139.271 48.5513Z" fill="white"/>
<path d="M122.365 44.0781H126.809V63.8229H122.365V55.4464H114.9V63.8229H110.455V44.0781H114.9V51.6284H122.365V44.0781Z" fill="white"/>
<path d="M200.996 71.6553C199.83 71.6553 198.937 72.0203 198.316 72.7502C197.706 73.4693 197.401 74.4716 197.401 75.7572C197.401 76.3673 197.472 76.9284 197.613 77.4405C197.766 77.9416 197.984 78.372 198.267 78.7315C198.561 79.091 198.921 79.3743 199.346 79.5813C199.781 79.7774 200.288 79.8755 200.865 79.8755C201.225 79.8755 201.535 79.8646 201.797 79.8428C202.058 79.8101 202.265 79.772 202.418 79.7284V75.6592H204.477V81.1011C204.194 81.2101 203.714 81.3299 203.039 81.4607C202.363 81.5914 201.584 81.6568 200.702 81.6568C199.885 81.6568 199.139 81.526 198.463 81.2646C197.788 81.0031 197.21 80.6218 196.731 80.1206C196.262 79.6194 195.897 79.0039 195.636 78.2739C195.374 77.544 195.244 76.7051 195.244 75.7572C195.244 74.8094 195.385 73.9705 195.669 73.2405C195.963 72.5105 196.36 71.895 196.862 71.3938C197.363 70.8818 197.951 70.495 198.626 70.2335C199.302 69.972 200.021 69.8413 200.784 69.8413C201.307 69.8413 201.77 69.8794 202.173 69.9557C202.587 70.0211 202.941 70.0973 203.235 70.1845C203.529 70.2717 203.769 70.3643 203.954 70.4623C204.15 70.5604 204.286 70.6312 204.363 70.6748L203.742 72.358C203.415 72.1619 203.006 71.9985 202.516 71.8678C202.037 71.7261 201.53 71.6553 200.996 71.6553Z" fill="white"/>
<path d="M187.314 81.4272C186.944 80.8062 186.53 80.1417 186.072 79.4335C185.615 78.7144 185.141 77.9954 184.651 77.2763C184.16 76.5464 183.659 75.8436 183.147 75.1682C182.646 74.4818 182.167 73.8662 181.709 73.3215V81.4272H179.683V70.1021H181.366C181.802 70.5596 182.27 71.1044 182.771 71.7363C183.272 72.3573 183.774 73.0055 184.275 73.681C184.787 74.3565 185.277 75.0374 185.746 75.7238C186.225 76.3993 186.65 77.0312 187.02 77.6195V70.1021H189.063V81.4272H187.314Z" fill="white"/>
<path d="M170.99 70.1021H173.049V81.4272H170.99V70.1021Z" fill="white"/>
<path d="M160.987 79.8918C161.728 79.8918 162.267 79.7665 162.605 79.5159C162.943 79.2654 163.112 78.9113 163.112 78.4537C163.112 78.1813 163.052 77.9471 162.932 77.751C162.823 77.5549 162.659 77.3805 162.442 77.228C162.235 77.0646 161.979 76.9175 161.673 76.7868C161.368 76.6451 161.02 76.509 160.628 76.3782C160.235 76.2366 159.854 76.0841 159.484 75.9206C159.124 75.7463 158.803 75.5339 158.519 75.2833C158.247 75.0327 158.024 74.7331 157.849 74.3845C157.686 74.0358 157.604 73.6164 157.604 73.1261C157.604 72.102 157.958 71.3012 158.667 70.7238C159.375 70.1355 160.339 69.8413 161.559 69.8413C162.267 69.8413 162.894 69.923 163.438 70.0864C163.994 70.239 164.43 70.4078 164.746 70.5931L164.108 72.26C163.738 72.053 163.329 71.895 162.883 71.786C162.447 71.6771 161.995 71.6226 161.526 71.6226C160.971 71.6226 160.535 71.737 160.219 71.9658C159.914 72.1946 159.761 72.516 159.761 72.93C159.761 73.1806 159.81 73.3985 159.909 73.5837C160.017 73.758 160.165 73.916 160.35 74.0576C160.546 74.1992 160.769 74.33 161.02 74.4498C161.281 74.5697 161.565 74.6841 161.87 74.793C162.403 74.9891 162.877 75.1907 163.291 75.3977C163.716 75.5938 164.07 75.8335 164.354 76.1167C164.648 76.3891 164.871 76.716 165.024 77.0973C165.176 77.4677 165.252 77.9198 165.252 78.4537C165.252 79.4778 164.887 80.2731 164.157 80.8397C163.438 81.3953 162.382 81.6731 160.987 81.6731C160.519 81.6731 160.088 81.6404 159.696 81.5751C159.315 81.5206 158.972 81.4498 158.667 81.3626C158.372 81.2755 158.116 81.1883 157.898 81.1011C157.681 81.0031 157.506 80.9159 157.375 80.8397L157.98 79.1564C158.274 79.3198 158.672 79.4833 159.173 79.6467C159.674 79.8101 160.279 79.8918 160.987 79.8918Z" fill="white"/>
<path d="M147.191 81.6724C146.418 81.6724 145.753 81.5634 145.197 81.3455C144.642 81.1167 144.179 80.8008 143.808 80.3977C143.449 79.9946 143.182 79.5206 143.008 78.9759C142.833 78.4312 142.746 77.8319 142.746 77.1783V70.1021H144.822V76.9821C144.822 77.4942 144.876 77.9354 144.985 78.3059C145.105 78.6654 145.268 78.9596 145.475 79.1884C145.693 79.4171 145.944 79.586 146.227 79.695C146.521 79.8039 146.848 79.8584 147.208 79.8584C147.567 79.8584 147.894 79.8039 148.188 79.695C148.482 79.586 148.733 79.4171 148.94 79.1884C149.158 78.9596 149.321 78.6654 149.43 78.3059C149.55 77.9354 149.61 77.4942 149.61 76.9821V70.1021H151.685V77.1783C151.685 77.8319 151.593 78.4312 151.407 78.9759C151.233 79.5206 150.961 79.9946 150.59 80.3977C150.231 80.8008 149.768 81.1167 149.201 81.3455C148.635 81.5634 147.965 81.6724 147.191 81.6724Z" fill="white"/>
<path d="M127.808 75.7572C127.808 76.3782 127.884 76.9447 128.037 77.4568C128.189 77.958 128.407 78.3883 128.69 78.7478C128.984 79.0965 129.339 79.3689 129.753 79.565C130.167 79.7611 130.635 79.8591 131.158 79.8591C131.67 79.8591 132.133 79.7611 132.547 79.565C132.961 79.3689 133.31 79.0965 133.593 78.7478C133.887 78.3883 134.11 77.958 134.263 77.4568C134.416 76.9447 134.492 76.3782 134.492 75.7572C134.492 75.1362 134.416 74.5751 134.263 74.074C134.11 73.5619 133.887 73.1316 133.593 72.7829C133.31 72.4234 132.961 72.1456 132.547 71.9495C132.133 71.7534 131.67 71.6553 131.158 71.6553C130.635 71.6553 130.167 71.7534 129.753 71.9495C129.339 72.1456 128.984 72.4234 128.69 72.7829C128.407 73.1424 128.189 73.5728 128.037 74.074C127.884 74.5751 127.808 75.1362 127.808 75.7572ZM136.649 75.7572C136.649 76.7269 136.502 77.5821 136.208 78.3229C135.924 79.0638 135.532 79.6848 135.031 80.186C134.541 80.6762 133.963 81.0467 133.299 81.2972C132.634 81.5478 131.926 81.6731 131.174 81.6731C130.423 81.6731 129.709 81.5478 129.033 81.2972C128.369 81.0467 127.786 80.6762 127.285 80.186C126.795 79.6848 126.402 79.0638 126.108 78.3229C125.814 77.5821 125.667 76.7269 125.667 75.7572C125.667 74.7876 125.814 73.9378 126.108 73.2078C126.402 72.467 126.8 71.846 127.301 71.3448C127.813 70.8436 128.402 70.4678 129.066 70.2172C129.731 69.9666 130.433 69.8413 131.174 69.8413C131.915 69.8413 132.618 69.9666 133.282 70.2172C133.947 70.4678 134.524 70.8436 135.015 71.3448C135.516 71.846 135.914 72.467 136.208 73.2078C136.502 73.9378 136.649 74.7876 136.649 75.7572Z" fill="white"/>
<path d="M117.433 70.1021H119.492V81.4272H117.433V76.4102H112.514V81.4272H110.455V70.1021H112.514V74.6289H117.433V70.1021Z" fill="white"/>
</svg>
